<svg width="73" height="33" viewBox="0 0 73 33" fill="none" xmlns="http://www.w3.org/2000/svg">
<path d="M2.9783 28.7546H9.14113V31.5107H0V0H2.9783V28.7546Z" fill="#123D76"/>
<path d="M17.3577 31.9769C18.3009 32.0003 19.2353 31.791 20.0785 31.3676C21.5489 30.6192 22.3878 29.4101 22.6058 27.7873C22.6782 27.1596 22.7107 26.5279 22.703 25.8961C22.703 20.0163 22.703 7.67285 22.703 7.67285H19.7525C19.7525 7.67285 19.7525 20.4385 19.7525 26.5365C19.7525 27.4195 19.5805 28.247 18.7972 28.7901C18.379 29.0943 17.8753 29.2582 17.3582 29.2582C16.8412 29.2582 16.3374 29.0943 15.9193 28.7901C15.136 28.2438 14.964 27.4195 14.964 26.5365C14.964 20.4428 14.964 7.67285 14.964 7.67285H12.0113C12.0113 7.67285 12.0113 20.0184 12.0113 25.8961C12.0038 26.5279 12.0359 27.1595 12.1075 27.7873C12.3212 29.4101 13.1654 30.6182 14.6348 31.3676C15.478 31.791 16.4124 32.0003 17.3556 31.9769" fill="#123D76"/>
<path d="M32.4279 31.9769C33.3711 32.0003 34.3055 31.791 35.1487 31.3676C36.6191 30.6192 37.458 29.4101 37.676 27.7873C37.7485 27.1596 37.7809 26.5279 37.7733 25.8961C37.7733 20.0163 37.7733 7.67285 37.7733 7.67285H34.8217C34.8217 7.67285 34.8217 20.4385 34.8217 26.5365C34.8217 27.4195 34.6496 28.247 33.8674 28.7901C33.4491 29.0944 32.9452 29.2584 32.4279 29.2584C31.9107 29.2584 31.4068 29.0944 30.9885 28.7901C30.2062 28.2438 30.0342 27.4195 30.0342 26.5365C30.0342 20.4428 30.0342 7.67285 30.0342 7.67285H27.0815C27.0815 7.67285 27.0815 20.0184 27.0815 25.8961C27.0744 26.5279 27.1069 27.1595 27.1788 27.7873C27.3925 29.4101 28.2357 30.6182 29.7061 31.3676C30.5493 31.791 31.4837 32.0003 32.4269 31.9769" fill="#123D76"/>
<path d="M67.6111 13.2916C67.6186 12.6598 67.5865 12.0282 67.5149 11.4004C67.3012 9.77757 66.457 8.56953 64.9876 7.82011C64.1444 7.39666 63.21 7.18738 62.2668 7.21075C61.3237 7.18738 60.3893 7.39666 59.5461 7.82011C58.0756 8.56846 57.2368 9.77757 57.0188 11.4004C56.9463 12.0281 56.9138 12.6598 56.9215 13.2916C56.9215 13.7523 56.9215 14.2185 56.9215 14.6814H59.871V12.6501C59.871 11.7671 60.043 10.9396 60.8263 10.3966C61.2444 10.0923 61.7482 9.92838 62.2652 9.92838C62.7823 9.92838 63.286 10.0923 63.7042 10.3966C64.4875 10.9428 64.6595 11.7671 64.6595 12.6501V16.2176C64.6595 16.2176 64.6691 16.4795 64.3282 16.6452C63.0288 17.2867 61.7005 17.8533 60.3839 18.4541C58.284 19.4109 57.0198 20.9824 56.9568 23.3429C56.9074 24.7938 56.9366 26.2463 57.0444 27.694C57.1801 29.3489 58.0639 30.5805 59.5407 31.3427C61.0176 32.105 62.6013 32.1851 64.169 31.6934C65.7367 31.2016 66.8812 30.171 67.3525 28.5396C67.5216 27.9847 67.614 27.4092 67.6271 26.8291L67.6111 13.2916ZM64.6189 27.0301C64.5954 28.313 63.6176 29.2174 62.331 29.2506C61.0817 29.2858 60.0441 28.4274 59.98 27.1691C59.9084 25.8328 59.9458 24.4911 59.9682 23.1558C59.9681 22.7964 60.0637 22.4435 60.2454 22.1334C60.427 21.8234 60.6881 21.5674 61.0016 21.3919C62.1557 20.7365 63.4231 20.1646 64.652 19.552C64.6446 19.552 64.6585 24.6354 64.6168 27.0301H64.6189Z" fill="#123D76"/>
<path d="M70.4457 5.56967C71.4664 5.56967 72.2938 4.74193 72.2938 3.72087C72.2938 2.69981 71.4664 1.87207 70.4457 1.87207C69.4251 1.87207 68.5977 2.69981 68.5977 3.72087C68.5977 4.74193 69.4251 5.56967 70.4457 5.56967Z" fill="#123D76"/>
<path d="M47.4971 7.21075C46.554 7.18738 45.6195 7.39666 44.7764 7.82011C43.3059 8.56846 42.467 9.77757 42.249 11.4004C42.1766 12.0281 42.1441 12.6598 42.1518 13.2916C42.1464 19.1714 42.1518 31.5148 42.1518 31.5148H45.1044C45.1044 31.5148 45.1044 18.7492 45.1044 12.6512C45.1044 11.7682 45.2765 10.9407 46.0598 10.3976C46.4779 10.0934 46.9817 9.92945 47.4987 9.92945C48.0158 9.92945 48.5195 10.0934 48.9376 10.3976C49.721 10.9439 49.893 11.7682 49.893 12.6512C49.893 18.7449 49.893 31.5148 49.893 31.5148H52.8457C52.8457 31.5148 52.8457 19.1693 52.8457 13.2916C52.8532 12.6598 52.821 12.0282 52.7495 11.4004C52.5358 9.77757 51.6915 8.56953 50.2222 7.82011C49.379 7.39666 48.4446 7.18738 47.5014 7.21075" fill="#123D76"/>
</svg>
