<svg width="10" height="10" viewBox="0 0 10 10" fill="none" xmlns="http://www.w3.org/2000/svg">
<path d="M9.00016 5.66666H5.66683V9C5.66683 9.36666 5.36683 9.66666 5.00016 9.66666C4.6335 9.66666 4.3335 9.36666 4.3335 9V5.66666H1.00016C0.633496 5.66666 0.333496 5.36666 0.333496 5C0.333496 4.63333 0.633496 4.33333 1.00016 4.33333H4.3335V0.999995C4.3335 0.633328 4.6335 0.333328 5.00016 0.333328C5.36683 0.333328 5.66683 0.633328 5.66683 0.999995V4.33333H9.00016C9.36683 4.33333 9.66683 4.63333 9.66683 5C9.66683 5.36666 9.36683 5.66666 9.00016 5.66666Z" fill="#005CB9"/>
</svg>
