<svg width="318" height="209" viewBox="0 0 318 209" fill="none" xmlns="http://www.w3.org/2000/svg">
<path fill-rule="evenodd" clip-rule="evenodd" d="M0 6.00001C0 2.6863 2.68629 0 6 0H312C315.314 0 318 2.68629 318 6V136C311.373 136 306 141.373 306 148C306 154.627 311.373 160 318 160V203C318 206.314 315.314 209 312 209H6C2.68629 209 0 206.314 0 203V160C6.62742 160 12 154.627 12 148C12 141.373 6.62742 136 0 136V6.00001Z" fill="#F1F2F2"/>
<line x1="13" y1="148" x2="305" y2="148" stroke="white" stroke-width="2" stroke-linecap="square" stroke-dasharray="10 10"/>
</svg>
