<svg width="17" height="18" viewBox="0 0 17 18" fill="none" xmlns="http://www.w3.org/2000/svg">
<path d="M8.49996 0.666672C3.89996 0.666672 0.166626 4.40001 0.166626 9C0.166626 13.6 3.89996 17.3333 8.49996 17.3333C13.1 17.3333 16.8333 13.6 16.8333 9C16.8333 4.40001 13.1 0.666672 8.49996 0.666672ZM6.24163 12.575L3.24996 9.58334C2.92496 9.25834 2.92496 8.73334 3.24996 8.40834C3.57496 8.08334 4.09996 8.08334 4.42496 8.40834L6.83329 10.8083L12.5666 5.075C12.8916 4.75 13.4166 4.75 13.7416 5.075C14.0666 5.4 14.0666 5.925 13.7416 6.25L7.41663 12.575C7.09996 12.9 6.56663 12.9 6.24163 12.575Z" fill="#005CB9"/>
</svg>
