<svg width="72" height="72" viewBox="0 0 72 72" fill="none" xmlns="http://www.w3.org/2000/svg">
<circle cx="36" cy="36" r="36" fill="#F1F2F2"/>
<path d="M29.3268 46C27.4934 46 26.0101 47.5 26.0101 49.3333C26.0101 51.1667 27.4934 52.6667 29.3268 52.6667C31.1601 52.6667 32.6601 51.1667 32.6601 49.3333C32.6601 47.5 31.1601 46 29.3268 46ZM19.3268 21C19.3268 21.9167 20.0768 22.6667 20.9934 22.6667H22.6601L28.6601 35.3167L26.4101 39.3833C25.1934 41.6167 26.7934 44.3333 29.3268 44.3333H47.6601C48.5768 44.3333 49.3268 43.5833 49.3268 42.6667C49.3268 41.75 48.5768 41 47.6601 41H29.3268L31.1601 37.6667H43.5768C44.8268 37.6667 45.9268 36.9833 46.4934 35.95L52.4601 25.1333C53.0768 24.0333 52.2768 22.6667 51.0101 22.6667H26.3434L25.2268 20.2833C24.9601 19.7 24.3601 19.3333 23.7268 19.3333H20.9934C20.0768 19.3333 19.3268 20.0833 19.3268 21ZM45.9934 46C44.1601 46 42.6768 47.5 42.6768 49.3333C42.6768 51.1667 44.1601 52.6667 45.9934 52.6667C47.8268 52.6667 49.3268 51.1667 49.3268 49.3333C49.3268 47.5 47.8268 46 45.9934 46Z" fill="#848484"/>
</svg>
