<svg viewBox="0 0 44 36" fill="none" xmlns="http://www.w3.org/2000/svg">
<rect x="7.98346" y="14.3703" width="13.572" height="3.19341" fill="#A2C7E2"/>
<rect x="12.7737" y="11.9753" width="3.19341" height="3.19341" fill="#A2C7E2"/>
<rect x="8.7818" y="17.5637" width="11.1769" height="7.18516" fill="#A2C7E2"/>
<path d="M43.2649 14.6695C43.3495 14.6695 43.4333 14.6528 43.5115 14.6205C43.5897 14.5881 43.6608 14.5406 43.7206 14.4808C43.7804 14.4209 43.8279 14.3498 43.8603 14.2717C43.8927 14.1935 43.9094 14.1096 43.9093 14.025V7.29538C43.9093 6.22929 43.042 5.362 41.976 5.362H41.3063L40.1029 1.37499C39.7949 0.354531 38.7144 -0.225553 37.6933 0.0827562L32.8432 1.54669C32.5023 1.64951 32.3096 2.00911 32.4124 2.34983C32.5152 2.69056 32.8745 2.88361 33.2155 2.78052L38.0657 1.31668C38.4059 1.21376 38.7663 1.40724 38.8689 1.74737L39.96 5.362H24.6635L30.7492 3.5251C30.8303 3.50065 33.6193 2.67352 33.6848 2.61993C33.7503 2.56634 32.8962 2.32023 32.9362 2.24565C32.9762 2.17107 32.9077 2.88249 32.9162 2.79827C32.9246 2.71406 34.4578 1.57812 34.4334 1.4971C34.2639 0.935549 30.7175 2.18792 30.3769 2.29117L20.2032 5.36191H6.49601C6.32508 5.36191 6.85783 5.49327 6.73696 5.61413C6.6161 5.735 6.95173 5.89164 6.95173 6.06257C6.95173 6.2335 3.15635 6.24182 3.27721 6.36268C3.39808 6.48355 5.81748 6.65089 5.98841 6.65089H41.976C42.3313 6.65089 42.6204 6.93999 42.6204 7.29538V13.4255C40.3775 13.74 38.6458 15.6715 38.6458 17.9998C38.6458 20.3281 40.3776 22.2596 42.6204 22.5742V28.7049C42.6204 29.0603 42.3313 29.3494 41.976 29.3494H36.2322C35.8762 29.3494 35.5877 29.6379 35.5877 29.9939C35.5877 30.3498 35.8762 30.6383 36.2322 30.6383H41.976C43.042 30.6383 43.9093 29.771 43.9093 28.705V21.9746C43.9094 21.8899 43.8927 21.8061 43.8603 21.7279C43.8279 21.6497 43.7804 21.5787 43.7206 21.5188C43.6608 21.459 43.5897 21.4115 43.5115 21.3791C43.4333 21.3467 43.3495 21.3301 43.2649 21.3301C41.4286 21.3301 39.9346 19.8361 39.9346 17.9998C39.9347 16.1634 41.4286 14.6695 43.2649 14.6695ZM40.5869 29.3492H1.93338C1.57799 29.3492 1.28889 29.0601 1.28889 28.7047V7.29538C1.28889 6.93999 1.57799 6.65089 1.93338 6.65089H6.49601C6.66694 6.65089 6.83087 6.58299 6.95173 6.46212C7.0726 6.34126 7.1405 6.17733 7.1405 6.0064C7.1405 5.83547 7.0726 5.67154 6.95173 5.55068C6.83087 5.42981 6.66694 5.36191 6.49601 5.36191H1.93338C0.867295 5.362 0 6.22929 0 7.29538V28.7048C0 29.7708 0.867295 30.6382 1.93338 30.6382H2.60292L3.80631 34.6252C4.05836 35.4603 4.82771 36 5.65822 36C5.84269 36 23.7061 30.6381 23.7061 30.6381H37.9364C38.2924 30.6381 35.9305 30.3496 35.9305 29.9936C35.9305 29.6376 40.9428 29.3492 40.5869 29.3492ZM5.84346 34.6835C5.50342 34.7861 5.14297 34.5928 5.04031 34.2528L3.94927 30.6382H19.2458L5.84346 34.6835Z" fill="#005CB9"/>
<path d="M26.7983 12.8337C26.7983 13.1897 27.0868 13.4782 27.4427 13.4782C27.7987 13.4782 28.0872 13.1897 28.0872 12.8337V11.5448C28.0872 11.1888 27.7987 10.9003 27.4427 10.9003C27.0868 10.9003 26.7983 11.1888 26.7983 11.5448V12.8337ZM26.7983 20.5672C26.7983 20.9232 27.0868 21.2117 27.4427 21.2117C27.7987 21.2117 28.0872 20.9232 28.0872 20.5672V19.2783C28.0872 18.9224 27.7987 18.6339 27.4427 18.6339C27.0868 18.6339 26.7983 18.9224 26.7983 19.2783V20.5672ZM26.7983 28.3008C26.7983 28.6568 27.0868 28.9453 27.4427 28.9453C27.7987 28.9453 28.0872 28.6568 28.0872 28.3008V27.0119C28.0872 26.6559 27.7987 26.3674 27.4427 26.3674C27.0868 26.3674 26.7983 26.6559 26.7983 27.0119V28.3008ZM26.7983 24.434C26.7983 24.79 27.0868 25.0785 27.4427 25.0785C27.7987 25.0785 28.0872 24.79 28.0872 24.434V23.1451C28.0872 22.7891 27.7987 22.5006 27.4427 22.5006C27.0868 22.5006 26.7983 22.7891 26.7983 23.1451V24.434ZM27.4427 9.61143C27.5273 9.61144 27.6111 9.59478 27.6893 9.56239C27.7675 9.53001 27.8386 9.48253 27.8984 9.42269C27.9583 9.36284 28.0057 9.29178 28.0381 9.21359C28.0705 9.13539 28.0872 9.05158 28.0871 8.96694V7.67804C28.0871 7.32205 27.7986 7.03355 27.4427 7.03355C27.0867 7.03355 26.7982 7.32205 26.7982 7.67804V8.96694C26.7982 9.13787 26.8661 9.3018 26.9869 9.42266C27.1078 9.54353 27.2717 9.61143 27.4427 9.61143ZM26.7983 16.7005C26.7983 17.0565 27.0868 17.345 27.4427 17.345C27.7987 17.345 28.0872 17.0565 28.0872 16.7005V15.4116C28.0872 15.0556 27.7987 14.7671 27.4427 14.7671C27.0868 14.7671 26.7983 15.0556 26.7983 15.4116V16.7005ZM32.7631 22.7483V13.5093C32.7631 13.1533 32.4747 12.8648 32.1187 12.8648C31.7627 12.8648 31.4742 13.1533 31.4742 13.5093V22.7483C31.4742 22.9192 31.5421 23.0832 31.6629 23.204C31.7838 23.3249 31.9477 23.3928 32.1187 23.3928C32.2896 23.3928 32.4535 23.3249 32.5744 23.204C32.6952 23.0832 32.7631 22.9192 32.7631 22.7483ZM35.8566 20.5945V15.663C35.8566 15.307 35.5681 15.0185 35.2121 15.0185C34.8561 15.0185 34.5676 15.307 34.5676 15.663V20.5945C34.5676 20.9505 34.8561 21.239 35.2121 21.239C35.5681 21.239 35.8566 20.9505 35.8566 20.5945ZM7.1405 15.0514V16.7819C7.1405 17.5427 7.70892 18.1717 8.44303 18.2706V23.8278C8.44303 24.8939 9.31033 25.7611 10.3764 25.7611H18.8536C19.9197 25.7611 20.787 24.8939 20.787 23.8278V18.2706C21.5211 18.1717 22.0894 17.5426 22.0894 16.7819V15.0514C22.0894 14.2223 21.4149 13.5477 20.5857 13.5477H20.3892C20.4027 13.2406 20.4033 12.8648 20.3658 12.4682C20.2003 10.7135 19.433 9.98646 18.8184 9.68544C17.4012 8.99138 16.2381 10.0652 15.6673 10.9517H13.5625C12.9918 10.065 11.8287 8.99095 10.4114 9.68544C9.79685 9.98646 9.02955 10.7135 8.86403 12.4682C8.82664 12.8648 8.82715 13.2406 8.84062 13.5477H8.64414C7.81509 13.5477 7.1405 14.2223 7.1405 15.0514ZM8.4294 15.0514C8.42946 14.9944 8.45212 14.9398 8.49239 14.8996C8.53267 14.8593 8.58727 14.8366 8.64423 14.8366H13.9105V16.9968H8.64423C8.58727 16.9967 8.53267 16.974 8.49239 16.9338C8.45212 16.8935 8.42946 16.8389 8.4294 16.7819V15.0514ZM9.73193 23.8278V18.2858H13.9105V24.4723H10.3764C10.021 24.4723 9.73193 24.1832 9.73193 23.8278ZM19.4981 23.8278C19.4981 24.1832 19.209 24.4723 18.8536 24.4723H15.1994V18.2858H19.4981V23.8278ZM20.8006 15.0514V16.7819C20.8005 16.8389 20.7779 16.8935 20.7376 16.9338C20.6973 16.974 20.6427 16.9967 20.5858 16.9968H15.1994V14.8366H20.5858C20.6427 14.8366 20.6973 14.8593 20.7376 14.8996C20.7779 14.9398 20.8005 14.9944 20.8006 15.0514ZM18.2515 10.8429C19.0408 11.2296 19.1446 12.6473 19.1004 13.5477H16.684V11.7622C16.8875 11.4173 17.5213 10.4854 18.2515 10.8429ZM15.3952 13.5477H13.8349V12.2406H15.3952V13.5477ZM10.9784 10.8429C11.4267 10.4647 12.3282 11.2785 12.5459 11.7643V13.5477H10.1295C10.0853 12.6469 10.1893 11.2295 10.9784 10.8429Z" fill="#005CB9"/>
</svg>
