<svg width="14" height="14" viewBox="0 0 14 14" fill="none" xmlns="http://www.w3.org/2000/svg">
<path d="M9.81622 8.69125H9.22372L9.01372 8.48875C9.74872 7.63375 10.1912 6.52375 10.1912 5.31625C10.1912 2.62375 8.00872 0.44125 5.31622 0.44125C2.62372 0.44125 0.441223 2.62375 0.441223 5.31625C0.441223 8.00875 2.62372 10.1912 5.31622 10.1912C6.52372 10.1912 7.63372 9.74875 8.48872 9.01375L8.69122 9.22375V9.81625L12.4412 13.5587L13.5587 12.4412L9.81622 8.69125ZM5.31622 8.69125C3.44872 8.69125 1.94122 7.18375 1.94122 5.31625C1.94122 3.44875 3.44872 1.94125 5.31622 1.94125C7.18372 1.94125 8.69122 3.44875 8.69122 5.31625C8.69122 7.18375 7.18372 8.69125 5.31622 8.69125Z" fill="#5C5C5C"/>
</svg>
