<svg viewBox="0 0 48 35" fill="none" xmlns="http://www.w3.org/2000/svg">
<path d="M0.664062 18.4848V29.6882L1.38067 30.5037H6.28616C6.28616 30.5037 6.6575 27.1381 9.90177 27.1381C13.146 27.1381 13.4131 30.5037 13.4131 30.5037H30.0058V18.4848H0.664062Z" fill="#A2C7E2"/>
<path d="M11.823 1.54674V6.22615L14.0771 5.22943L16.1226 6.22615V1.24902L11.823 1.54674Z" fill="#A2C7E2"/>
<path d="M29.9802 31.1508H13.3224C12.9641 31.1508 12.6709 30.8595 12.6709 30.5035C12.6709 30.1476 12.9641 29.8563 13.3224 29.8563H29.3287V19.0801H1.30292V29.2156C1.30292 29.5651 1.58956 29.8498 1.94135 29.8498H6.47551C6.83382 29.8498 7.12697 30.1411 7.12697 30.4971C7.12697 30.853 6.83382 31.1443 6.47551 31.1443H1.94135C0.872957 31.1443 0 30.277 0 29.2156V18.4329C0 18.0769 0.293157 17.7856 0.65146 17.7856H29.9802C30.3385 17.7856 30.6317 18.0769 30.6317 18.4329V30.4971C30.6317 30.853 30.3385 31.1443 29.9802 31.1443V31.1508Z" fill="#005CB9"/>
<path d="M46.0587 31.1508H41.4854C41.1271 31.1508 40.8339 30.8596 40.8339 30.5036C40.8339 30.1476 41.1271 29.8564 41.4854 29.8564H46.0587C46.4104 29.8564 46.6971 29.5716 46.6971 29.2221V18.5753L41.7199 7.83791H30.6321V29.8564H34.6386C34.9969 29.8564 35.29 30.1476 35.29 30.5036C35.29 30.8596 34.9969 31.1508 34.6386 31.1508H29.9806C29.6223 31.1508 29.3292 30.8596 29.3292 30.5036V7.19069C29.3292 6.83471 29.6223 6.54346 29.9806 6.54346H42.1369C42.3909 6.54346 42.6255 6.69233 42.7297 6.91885L47.9414 18.1611C47.9805 18.2452 48 18.3358 48 18.4329V29.2156C48 30.2771 47.1271 31.1444 46.0587 31.1444V31.1508Z" fill="#005CB9"/>
<path d="M16.2272 6.87353C16.136 6.87353 16.0447 6.85411 15.9601 6.81528L14.0773 5.98036L12.1946 6.81528C11.9927 6.90589 11.7581 6.88647 11.5757 6.76997C11.3933 6.65347 11.2761 6.44636 11.2761 6.22631V1.31389C11.2761 0.957922 11.5692 0.666672 11.9275 0.666672H16.2206C16.5789 0.666672 16.8721 0.957922 16.8721 1.31389V6.22631C16.8721 6.44636 16.7614 6.647 16.5724 6.76997C16.4682 6.84117 16.3444 6.87353 16.2206 6.87353H16.2272ZM12.5855 1.96112V5.22958L13.8168 4.68592C13.9861 4.60825 14.1816 4.60825 14.351 4.68592L15.5822 5.22958V1.96112H12.592H12.5855Z" fill="#005CB9"/>
<path d="M43.8315 19.0802H33.1801C32.8218 19.0802 32.5286 18.7889 32.5286 18.433V10.5304C32.5286 10.1744 32.8218 9.88316 33.1801 9.88316H40.1703C40.4243 9.88316 40.6588 10.032 40.7631 10.2586L44.4243 18.1611C44.5155 18.3618 44.5025 18.5948 44.3787 18.7825C44.2614 18.9702 44.053 19.0802 43.8315 19.0802ZM33.8315 17.7857H42.8152L39.7533 11.1776H33.8315V17.7857Z" fill="#005CB9"/>
<path d="M9.89584 34.5487C7.64831 34.5487 5.82422 32.73 5.82422 30.5036C5.82422 28.2771 7.65482 26.4584 9.89584 26.4584C12.1369 26.4584 13.9675 28.2771 13.9675 30.5036C13.9675 32.73 12.1369 34.5487 9.89584 34.5487ZM9.89584 27.7464C8.36491 27.7464 7.12714 28.9826 7.12714 30.4971C7.12714 32.0116 8.37143 33.2478 9.89584 33.2478C11.4203 33.2478 12.6646 32.0116 12.6646 30.4971C12.6646 28.9826 11.4203 27.7464 9.89584 27.7464Z" fill="#005CB9"/>
<path d="M38.0649 34.5487C35.8174 34.5487 33.9933 32.73 33.9933 30.5036C33.9933 28.2771 35.8239 26.4584 38.0649 26.4584C40.3059 26.4584 42.1365 28.2771 42.1365 30.5036C42.1365 32.73 40.3059 34.5487 38.0649 34.5487ZM38.0649 27.7464C36.534 27.7464 35.2962 28.9826 35.2962 30.4971C35.2962 32.0116 36.5405 33.2478 38.0649 33.2478C39.5893 33.2478 40.8336 32.0116 40.8336 30.4971C40.8336 28.9826 39.5893 27.7464 38.0649 27.7464Z" fill="#005CB9"/>
<path d="M0.65146 19.0801C0.293157 19.0801 0 18.7889 0 18.4329V1.31389C0 0.957914 0.293157 0.666664 0.65146 0.666664H27.2375C27.4916 0.666664 27.7196 0.815525 27.8304 1.04205L30.573 6.91883C30.7229 7.24244 30.5795 7.63077 30.2538 7.77963C29.9281 7.92849 29.5372 7.7861 29.3874 7.46249L26.8206 1.96111H1.30292V18.4329C1.30292 18.7889 1.00976 19.0801 0.65146 19.0801Z" fill="#005CB9"/>
</svg>
