<svg viewBox="0 0 22 22" fill="none" xmlns="http://www.w3.org/2000/svg">
<path d="M18.501 6.5L19.441 4.44L21.501 3.5L19.441 2.56L18.501 0.5L17.561 2.56L15.501 3.5L17.561 4.44L18.501 6.5Z" fill="#231F20"/>
<path d="M7.00104 6.5L7.94103 4.44L10.001 3.5L7.94103 2.56L7.00104 0.5L6.06104 2.56L4.00104 3.5L6.06104 4.44L7.00104 6.5Z" fill="#231F20"/>
<path d="M18.501 12L17.561 14.06L15.501 15L17.561 15.94L18.501 18L19.441 15.94L21.501 15L19.441 14.06L18.501 12Z" fill="#231F20"/>
<path d="M16.211 8.62L13.381 5.79C13.181 5.6 12.931 5.5 12.671 5.5C12.411 5.5 12.161 5.6 11.961 5.79L0.791035 16.96C0.401035 17.35 0.401035 17.98 0.791035 18.37L3.62104 21.2C3.82104 21.4 4.07104 21.5 4.33104 21.5C4.59103 21.5 4.84104 21.4 5.04104 21.21L16.211 10.04C16.601 9.65 16.601 9.01 16.211 8.62ZM12.671 7.92L14.081 9.33L12.911 10.5L11.501 9.09L12.671 7.92ZM4.33104 19.09L2.92104 17.68L10.091 10.5L11.501 11.91L4.33104 19.09Z" fill="#231F20"/>
</svg>
